<svg xmlns="http://www.w3.org/2000/svg" width="350.40000000000003" height="35" viewBox="0 0 350.40000000000003 35"><rect class="svg__rect" x="0" y="0" width="350.40000000000003" height="35" fill="#A7BFC1"/><rect class="svg__rect" x="350.40000000000003" y="0" width="0" height="35" fill="#389AD5"/><path class="svg__text" d="M13.95 18.19L13.95 18.19L13.95 17.39Q13.95 16.19 14.38 15.27Q14.80 14.35 15.60 13.85Q16.40 13.35 17.45 13.35L17.45 13.35Q18.86 13.35 19.73 14.12Q20.59 14.89 20.73 16.29L20.73 16.29L19.25 16.29Q19.14 15.37 18.71 14.96Q18.28 14.55 17.45 14.55L17.45 14.55Q16.48 14.55 15.97 15.26Q15.45 15.96 15.44 17.33L15.44 17.33L15.44 18.09Q15.44 19.47 15.93 20.20Q16.43 20.92 17.38 20.92L17.38 20.92Q18.25 20.92 18.69 20.53Q19.13 20.14 19.25 19.22L19.25 19.22L20.73 19.22Q20.60 20.59 19.72 21.35Q18.84 22.12 17.38 22.12L17.38 22.12Q16.36 22.12 15.59 21.63Q14.81 21.15 14.39 20.26Q13.97 19.37 13.95 18.19ZM26.52 22L25.04 22L25.04 13.47L26.52 13.47L26.52 17.02L30.34 17.02L30.34 13.47L31.81 13.47L31.81 22L30.34 22L30.34 18.21L26.52 18.21L26.52 22ZM42.13 22L36.55 22L36.55 13.47L42.09 13.47L42.09 14.66L38.04 14.66L38.04 17.02L41.54 17.02L41.54 18.19L38.04 18.19L38.04 20.82L42.13 20.82L42.13 22ZM46.06 18.19L46.06 18.19L46.06 17.39Q46.06 16.19 46.48 15.27Q46.91 14.35 47.71 13.85Q48.51 13.35 49.56 13.35L49.56 13.35Q50.97 13.35 51.83 14.12Q52.70 14.89 52.84 16.29L52.84 16.29L51.36 16.29Q51.25 15.37 50.82 14.96Q50.39 14.55 49.56 14.55L49.56 14.55Q48.59 14.55 48.08 15.26Q47.56 15.96 47.55 17.33L47.55 17.33L47.55 18.09Q47.55 19.47 48.04 20.20Q48.54 20.92 49.49 20.92L49.49 20.92Q50.36 20.92 50.80 20.53Q51.24 20.14 51.36 19.22L51.36 19.22L52.84 19.22Q52.71 20.59 51.83 21.35Q50.95 22.12 49.49 22.12L49.49 22.12Q48.47 22.12 47.69 21.63Q46.92 21.15 46.50 20.26Q46.07 19.37 46.06 18.19ZM58.63 22L57.15 22L57.15 13.47L58.63 13.47L58.63 17.47L59.45 16.46L61.95 13.47L63.74 13.47L60.57 17.25L63.92 22L62.16 22L59.60 18.31L58.63 19.34L58.63 22ZM76.13 22L73.68 22L73.68 13.47L76.20 13.47Q77.33 13.47 78.20 13.97Q79.08 14.48 79.56 15.40Q80.04 16.33 80.04 17.52L80.04 17.52L80.04 17.95Q80.04 19.16 79.56 20.08Q79.07 21.00 78.18 21.50Q77.29 22 76.13 22L76.13 22ZM75.16 14.66L75.16 20.82L76.13 20.82Q77.29 20.82 77.92 20.09Q78.54 19.36 78.55 17.99L78.55 17.99L78.55 17.52Q78.55 16.13 77.95 15.40Q77.35 14.66 76.20 14.66L76.20 14.66L75.16 14.66ZM90.08 22L84.51 22L84.51 13.47L90.04 13.47L90.04 14.66L85.99 14.66L85.99 17.02L89.49 17.02L89.49 18.19L85.99 18.19L85.99 20.82L90.08 20.82L90.08 22ZM95.96 14.66L93.32 14.66L93.32 13.47L100.09 13.47L100.09 14.66L97.43 14.66L97.43 22L95.96 22L95.96 14.66ZM104.63 22L103.09 22L106.31 13.47L107.64 13.47L110.87 22L109.32 22L108.62 20.01L105.32 20.01L104.63 22ZM106.97 15.28L105.73 18.82L108.21 18.82L106.97 15.28ZM116.39 22L114.91 22L114.91 13.47L116.39 13.47L116.39 22ZM126.55 22L121.20 22L121.20 13.47L122.68 13.47L122.68 20.82L126.55 20.82L126.55 22ZM136.26 22L130.68 22L130.68 13.47L136.22 13.47L136.22 14.66L132.16 14.66L132.16 17.02L135.66 17.02L135.66 18.19L132.16 18.19L132.16 20.82L136.26 20.82L136.26 22ZM142.91 22L140.45 22L140.45 13.47L142.97 13.47Q144.10 13.47 144.98 13.97Q145.85 14.48 146.33 15.40Q146.81 16.33 146.81 17.52L146.81 17.52L146.81 17.95Q146.81 19.16 146.33 20.08Q145.85 21.00 144.95 21.50Q144.06 22 142.91 22L142.91 22ZM141.93 14.66L141.93 20.82L142.90 20.82Q144.07 20.82 144.69 20.09Q145.31 19.36 145.33 17.99L145.33 17.99L145.33 17.52Q145.33 16.13 144.72 15.40Q144.12 14.66 142.97 14.66L142.97 14.66L141.93 14.66ZM159.71 22L157.26 22L157.26 13.47L159.78 13.47Q160.91 13.47 161.78 13.97Q162.66 14.48 163.14 15.40Q163.62 16.33 163.62 17.52L163.62 17.52L163.62 17.95Q163.62 19.16 163.14 20.08Q162.65 21.00 161.76 21.50Q160.87 22 159.71 22L159.71 22ZM158.74 14.66L158.74 20.82L159.71 20.82Q160.87 20.82 161.50 20.09Q162.12 19.36 162.13 17.99L162.13 17.99L162.13 17.52Q162.13 16.13 161.53 15.40Q160.92 14.66 159.78 14.66L159.78 14.66L158.74 14.66ZM167.81 18.00L167.81 18.00L167.81 17.52Q167.81 16.28 168.26 15.32Q168.70 14.37 169.51 13.86Q170.31 13.35 171.35 13.35Q172.40 13.35 173.20 13.85Q174.01 14.35 174.45 15.29Q174.89 16.23 174.89 17.48L174.89 17.48L174.89 17.96Q174.89 19.21 174.46 20.16Q174.03 21.10 173.22 21.61Q172.41 22.12 171.37 22.12L171.37 22.12Q170.33 22.12 169.52 21.61Q168.71 21.10 168.26 20.17Q167.82 19.23 167.81 18.00ZM169.30 17.46L169.30 17.96Q169.30 19.36 169.85 20.13Q170.39 20.90 171.37 20.90L171.37 20.90Q172.35 20.90 172.88 20.15Q173.41 19.40 173.41 17.96L173.41 17.96L173.41 17.51Q173.41 16.09 172.87 15.34Q172.34 14.58 171.35 14.58L171.35 14.58Q170.39 14.58 169.85 15.33Q169.31 16.09 169.30 17.46L169.30 17.46ZM179.09 18.19L179.09 18.19L179.09 17.39Q179.09 16.19 179.52 15.27Q179.94 14.35 180.74 13.85Q181.54 13.35 182.59 13.35L182.59 13.35Q184.00 13.35 184.87 14.12Q185.73 14.89 185.87 16.29L185.87 16.29L184.39 16.29Q184.29 15.37 183.85 14.96Q183.42 14.55 182.59 14.55L182.59 14.55Q181.63 14.55 181.11 15.26Q180.59 15.96 180.58 17.33L180.58 17.33L180.58 18.09Q180.58 19.47 181.07 20.20Q181.57 20.92 182.52 20.92L182.52 20.92Q183.39 20.92 183.83 20.53Q184.27 20.14 184.39 19.22L184.39 19.22L185.87 19.22Q185.74 20.59 184.86 21.35Q183.98 22.12 182.52 22.12L182.52 22.12Q181.50 22.12 180.73 21.63Q179.95 21.15 179.53 20.26Q179.11 19.37 179.09 18.19ZM190.05 19.16L190.05 19.16L190.05 13.47L191.52 13.47L191.52 19.18Q191.52 20.03 191.96 20.48Q192.39 20.93 193.23 20.93L193.23 20.93Q194.94 20.93 194.94 19.13L194.94 19.13L194.94 13.47L196.42 13.47L196.42 19.17Q196.42 20.53 195.55 21.32Q194.68 22.12 193.23 22.12L193.23 22.12Q191.77 22.12 190.91 21.33Q190.05 20.55 190.05 19.16ZM202.47 22L200.99 22L200.99 13.47L202.91 13.47L205.37 20.01L207.83 13.47L209.74 13.47L209.74 22L208.27 22L208.27 19.19L208.41 15.43L205.89 22L204.83 22L202.32 15.43L202.47 19.19L202.47 22ZM220.06 22L214.48 22L214.48 13.47L220.02 13.47L220.02 14.66L215.97 14.66L215.97 17.02L219.47 17.02L219.47 18.19L215.97 18.19L215.97 20.82L220.06 20.82L220.06 22ZM225.74 22L224.26 22L224.26 13.47L225.74 13.47L229.56 19.54L229.56 13.47L231.03 13.47L231.03 22L229.54 22L225.74 15.95L225.74 22ZM237.45 14.66L234.81 14.66L234.81 13.47L241.58 13.47L241.58 14.66L238.92 14.66L238.92 22L237.45 22L237.45 14.66ZM246.11 22L244.57 22L247.80 13.47L249.13 13.47L252.35 22L250.81 22L250.11 20.01L246.81 20.01L246.11 22ZM248.46 15.28L247.22 18.82L249.69 18.82L248.46 15.28ZM257.99 14.66L255.35 14.66L255.35 13.47L262.12 13.47L262.12 14.66L259.46 14.66L259.46 22L257.99 22L257.99 14.66ZM267.44 22L265.97 22L265.97 13.47L267.44 13.47L267.44 22ZM271.98 18.00L271.98 18.00L271.98 17.52Q271.98 16.28 272.43 15.32Q272.87 14.37 273.67 13.86Q274.48 13.35 275.52 13.35Q276.56 13.35 277.37 13.85Q278.18 14.35 278.62 15.29Q279.06 16.23 279.06 17.48L279.06 17.48L279.06 17.96Q279.06 19.21 278.63 20.16Q278.19 21.10 277.39 21.61Q276.58 22.12 275.53 22.12L275.53 22.12Q274.50 22.12 273.68 21.61Q272.87 21.10 272.43 20.17Q271.99 19.23 271.98 18.00ZM273.47 17.46L273.47 17.96Q273.47 19.36 274.01 20.13Q274.56 20.90 275.53 20.90L275.53 20.90Q276.52 20.90 277.05 20.15Q277.58 19.40 277.58 17.96L277.58 17.96L277.58 17.51Q277.58 16.09 277.04 15.34Q276.51 14.58 275.52 14.58L275.52 14.58Q274.56 14.58 274.02 15.33Q273.48 16.09 273.47 17.46L273.47 17.46ZM285.01 22L283.53 22L283.53 13.47L285.01 13.47L288.82 19.54L288.82 13.47L290.29 13.47L290.29 22L288.81 22L285.01 15.95L285.01 22ZM302.49 22L301.01 22L301.01 13.47L302.49 13.47L302.49 17.02L306.31 17.02L306.31 13.47L307.78 13.47L307.78 22L306.31 22L306.31 18.21L302.49 18.21L302.49 22ZM318.10 22L312.52 22L312.52 13.47L318.06 13.47L318.06 14.66L314.01 14.66L314.01 17.02L317.51 17.02L317.51 18.19L314.01 18.19L314.01 20.82L318.10 20.82L318.10 22ZM323.78 22L322.30 22L322.30 13.47L325.30 13.47Q326.77 13.47 327.58 14.13Q328.38 14.79 328.38 16.05L328.38 16.05Q328.38 16.90 327.97 17.48Q327.55 18.06 326.81 18.37L326.81 18.37L328.73 21.92L328.73 22L327.14 22L325.43 18.71L323.78 18.71L323.78 22ZM323.78 14.66L323.78 17.52L325.30 17.52Q326.05 17.52 326.48 17.15Q326.90 16.77 326.90 16.11L326.90 16.11Q326.90 15.43 326.51 15.05Q326.12 14.68 325.34 14.66L325.34 14.66L323.78 14.66ZM338.35 22L332.77 22L332.77 13.47L338.31 13.47L338.31 14.66L334.26 14.66L334.26 17.02L337.76 17.02L337.76 18.19L334.26 18.19L334.26 20.82L338.35 20.82L338.35 22Z" fill="#FFFFFF"/><path class="svg__text" d="" fill="#FFFFFF" x="363.40000000000003"/></svg>