<svg xmlns="http://www.w3.org/2000/svg" width="620.32" height="35" viewBox="0 0 620.32 35"><rect class="svg__rect" x="0" y="0" width="193.1" height="35" fill="#31C4F3"/><rect class="svg__rect" x="191.1" y="0" width="429.22" height="35" fill="#389AD5"/><path class="svg__text" d="M16.67 22L14.22 22L14.22 13.47L16.74 13.47Q17.87 13.47 18.74 13.97Q19.62 14.48 20.10 15.40Q20.58 16.33 20.58 17.52L20.58 17.52L20.58 17.95Q20.58 19.16 20.10 20.08Q19.61 21.00 18.72 21.50Q17.83 22 16.67 22L16.67 22ZM15.70 14.66L15.70 20.82L16.67 20.82Q17.83 20.82 18.46 20.09Q19.08 19.36 19.09 17.99L19.09 17.99L19.09 17.52Q19.09 16.13 18.49 15.40Q17.89 14.66 16.74 14.66L16.74 14.66L15.70 14.66ZM24.78 18.00L24.78 18.00L24.78 17.52Q24.78 16.28 25.22 15.32Q25.66 14.37 26.47 13.86Q27.27 13.35 28.31 13.35Q29.36 13.35 30.16 13.85Q30.97 14.35 31.41 15.29Q31.85 16.23 31.85 17.48L31.85 17.48L31.85 17.96Q31.85 19.21 31.42 20.16Q30.99 21.10 30.18 21.61Q29.38 22.12 28.33 22.12L28.33 22.12Q27.29 22.12 26.48 21.61Q25.67 21.10 25.22 20.17Q24.78 19.23 24.78 18.00ZM26.26 17.46L26.26 17.96Q26.26 19.36 26.81 20.13Q27.35 20.90 28.33 20.90L28.33 20.90Q29.31 20.90 29.84 20.15Q30.37 19.40 30.37 17.96L30.37 17.96L30.37 17.51Q30.37 16.09 29.84 15.34Q29.30 14.58 28.31 14.58L28.31 14.58Q27.35 14.58 26.81 15.33Q26.27 16.09 26.26 17.46L26.26 17.46ZM43.78 22L42.30 22L42.30 13.47L43.78 13.47L47.59 19.54L47.59 13.47L49.06 13.47L49.06 22L47.58 22L43.78 15.95L43.78 22ZM53.53 18.00L53.53 18.00L53.53 17.52Q53.53 16.28 53.98 15.32Q54.42 14.37 55.22 13.86Q56.03 13.35 57.07 13.35Q58.12 13.35 58.92 13.85Q59.73 14.35 60.17 15.29Q60.61 16.23 60.61 17.48L60.61 17.48L60.61 17.96Q60.61 19.21 60.18 20.16Q59.74 21.10 58.94 21.61Q58.13 22.12 57.08 22.12L57.08 22.12Q56.05 22.12 55.24 21.61Q54.42 21.10 53.98 20.17Q53.54 19.23 53.53 18.00ZM55.02 17.46L55.02 17.96Q55.02 19.36 55.56 20.13Q56.11 20.90 57.08 20.90L57.08 20.90Q58.07 20.90 58.60 20.15Q59.13 19.40 59.13 17.96L59.13 17.96L59.13 17.51Q59.13 16.09 58.59 15.34Q58.06 14.58 57.07 14.58L57.07 14.58Q56.11 14.58 55.57 15.33Q55.03 16.09 55.02 17.46L55.02 17.46ZM66.76 14.66L64.12 14.66L64.12 13.47L70.89 13.47L70.89 14.66L68.23 14.66L68.23 22L66.76 22L66.76 14.66ZM80.35 18.19L80.35 18.19L80.35 17.39Q80.35 16.19 80.78 15.27Q81.21 14.35 82.01 13.85Q82.81 13.35 83.86 13.35L83.86 13.35Q85.27 13.35 86.13 14.12Q86.99 14.89 87.13 16.29L87.13 16.29L85.65 16.29Q85.55 15.37 85.12 14.96Q84.69 14.55 83.86 14.55L83.86 14.55Q82.89 14.55 82.37 15.26Q81.85 15.96 81.84 17.33L81.84 17.33L81.84 18.09Q81.84 19.47 82.34 20.20Q82.83 20.92 83.79 20.92L83.79 20.92Q84.66 20.92 85.10 20.53Q85.54 20.14 85.65 19.22L85.65 19.22L87.13 19.22Q87.00 20.59 86.12 21.35Q85.24 22.12 83.79 22.12L83.79 22.12Q82.77 22.12 81.99 21.63Q81.21 21.15 80.79 20.26Q80.37 19.37 80.35 18.19ZM96.80 22L91.44 22L91.44 13.47L92.93 13.47L92.93 20.82L96.80 20.82L96.80 22ZM100.65 18.00L100.65 18.00L100.65 17.52Q100.65 16.28 101.10 15.32Q101.54 14.37 102.35 13.86Q103.15 13.35 104.19 13.35Q105.24 13.35 106.04 13.85Q106.85 14.35 107.29 15.29Q107.73 16.23 107.73 17.48L107.73 17.48L107.73 17.96Q107.73 19.21 107.30 20.16Q106.87 21.10 106.06 21.61Q105.25 22.12 104.21 22.12L104.21 22.12Q103.17 22.12 102.36 21.61Q101.55 21.10 101.10 20.17Q100.66 19.23 100.65 18.00ZM102.14 17.46L102.14 17.96Q102.14 19.36 102.68 20.13Q103.23 20.90 104.21 20.90L104.21 20.90Q105.19 20.90 105.72 20.15Q106.25 19.40 106.25 17.96L106.25 17.96L106.25 17.51Q106.25 16.09 105.71 15.34Q105.18 14.58 104.19 14.58L104.19 14.58Q103.23 14.58 102.69 15.33Q102.15 16.09 102.14 17.46L102.14 17.46ZM113.68 22L112.20 22L112.20 13.47L113.68 13.47L117.49 19.54L117.49 13.47L118.97 13.47L118.97 22L117.48 22L113.68 15.95L113.68 22ZM129.28 22L123.71 22L123.71 13.47L129.24 13.47L129.24 14.66L125.19 14.66L125.19 17.02L128.69 17.02L128.69 18.19L125.19 18.19L125.19 20.82L129.28 20.82L129.28 22ZM133.74 22.73L132.62 22.73L135.98 13.47L137.10 13.47L133.74 22.73ZM142.70 22L141.21 22L141.21 13.47L146.63 13.47L146.63 14.66L142.70 14.66L142.70 17.20L146.13 17.20L146.13 18.38L142.70 18.38L142.70 22ZM150.52 18.00L150.52 18.00L150.52 17.52Q150.52 16.28 150.97 15.32Q151.41 14.37 152.21 13.86Q153.02 13.35 154.06 13.35Q155.11 13.35 155.91 13.85Q156.72 14.35 157.16 15.29Q157.60 16.23 157.60 17.48L157.60 17.48L157.60 17.96Q157.60 19.21 157.17 20.16Q156.73 21.10 155.93 21.61Q155.12 22.12 154.07 22.12L154.07 22.12Q153.04 22.12 152.23 21.61Q151.41 21.10 150.97 20.17Q150.53 19.23 150.52 18.00ZM152.01 17.46L152.01 17.96Q152.01 19.36 152.55 20.13Q153.10 20.90 154.07 20.90L154.07 20.90Q155.06 20.90 155.59 20.15Q156.12 19.40 156.12 17.96L156.12 17.96L156.12 17.51Q156.12 16.09 155.58 15.34Q155.05 14.58 154.06 14.58L154.06 14.58Q153.10 14.58 152.56 15.33Q152.02 16.09 152.01 17.46L152.01 17.46ZM163.55 22L162.07 22L162.07 13.47L165.07 13.47Q166.54 13.47 167.35 14.13Q168.15 14.79 168.15 16.05L168.15 16.05Q168.15 16.90 167.74 17.48Q167.32 18.06 166.58 18.37L166.58 18.37L168.50 21.92L168.50 22L166.91 22L165.20 18.71L163.55 18.71L163.55 22ZM163.55 14.66L163.55 17.52L165.07 17.52Q165.82 17.52 166.24 17.15Q166.67 16.77 166.67 16.11L166.67 16.11Q166.67 15.43 166.28 15.05Q165.89 14.68 165.11 14.66L165.11 14.66L163.55 14.66ZM174.03 22L172.54 22L172.54 13.47L174.03 13.47L174.03 17.47L174.85 16.46L177.34 13.47L179.14 13.47L175.97 17.25L179.32 22L177.56 22L174.99 18.31L174.03 19.34L174.03 22Z" fill="#FFFFFF"/><path class="svg__text" d="M204.86 17.80L204.86 17.80Q204.86 16.54 205.46 15.54Q206.06 14.55 207.11 13.99Q208.16 13.43 209.48 13.43L209.48 13.43Q210.63 13.43 211.55 13.84Q212.48 14.25 213.09 15.02L213.09 15.02L211.58 16.39Q210.77 15.40 209.60 15.40L209.60 15.40Q208.91 15.40 208.38 15.70Q207.85 16 207.55 16.54Q207.26 17.09 207.26 17.80L207.26 17.80Q207.26 18.51 207.55 19.05Q207.85 19.60 208.38 19.90Q208.91 20.20 209.60 20.20L209.60 20.20Q210.77 20.20 211.58 19.22L211.58 19.22L213.09 20.58Q212.48 21.35 211.56 21.76Q210.63 22.17 209.48 22.17L209.48 22.17Q208.16 22.17 207.11 21.61Q206.06 21.05 205.46 20.05Q204.86 19.06 204.86 17.80ZM224.01 22L217.63 22L217.63 13.60L220.01 13.60L220.01 20.11L224.01 20.11L224.01 22ZM230.81 22L228.43 22L228.43 13.60L230.81 13.60L230.81 22ZM235.56 17.80L235.56 17.80Q235.56 16.54 236.16 15.54Q236.75 14.55 237.80 13.99Q238.86 13.43 240.17 13.43L240.17 13.43Q241.33 13.43 242.25 13.84Q243.17 14.25 243.79 15.02L243.79 15.02L242.28 16.39Q241.46 15.40 240.30 15.40L240.30 15.40Q239.61 15.40 239.08 15.70Q238.55 16 238.25 16.54Q237.95 17.09 237.95 17.80L237.95 17.80Q237.95 18.51 238.25 19.05Q238.55 19.60 239.08 19.90Q239.61 20.20 240.30 20.20L240.30 20.20Q241.46 20.20 242.28 19.22L242.28 19.22L243.79 20.58Q243.18 21.35 242.25 21.76Q241.33 22.17 240.17 22.17L240.17 22.17Q238.86 22.17 237.80 21.61Q236.75 21.05 236.16 20.05Q235.56 19.06 235.56 17.80ZM250.68 22L248.32 22L248.32 13.60L250.68 13.60L250.68 17.09L253.93 13.60L256.55 13.60L253.12 17.32L256.73 22L253.97 22L251.57 18.95L250.68 19.90L250.68 22ZM269.60 15.48L267.02 15.48L267.02 13.60L274.54 13.60L274.54 15.48L271.97 15.48L271.97 22L269.60 22L269.60 15.48ZM281.29 22L278.91 22L278.91 13.60L281.29 13.60L281.29 16.76L284.53 16.76L284.53 13.60L286.90 13.60L286.90 22L284.53 22L284.53 18.72L281.29 18.72L281.29 22ZM294.44 22L292.07 22L292.07 13.60L294.44 13.60L294.44 22ZM299.03 21.24L299.03 21.24L299.81 19.49Q300.37 19.86 301.12 20.09Q301.86 20.32 302.58 20.32L302.58 20.32Q303.95 20.32 303.95 19.64L303.95 19.64Q303.95 19.28 303.56 19.11Q303.17 18.93 302.31 18.74L302.31 18.74Q301.36 18.53 300.72 18.30Q300.09 18.06 299.63 17.55Q299.18 17.03 299.18 16.16L299.18 16.16Q299.18 15.39 299.60 14.77Q300.02 14.15 300.85 13.79Q301.69 13.43 302.89 13.43L302.89 13.43Q303.72 13.43 304.53 13.62Q305.33 13.80 305.95 14.17L305.95 14.17L305.21 15.93Q304.01 15.28 302.88 15.28L302.88 15.28Q302.17 15.28 301.85 15.49Q301.53 15.70 301.53 16.04L301.53 16.04Q301.53 16.37 301.91 16.54Q302.30 16.71 303.15 16.89L303.15 16.89Q304.11 17.10 304.74 17.33Q305.37 17.56 305.83 18.07Q306.29 18.58 306.29 19.46L306.29 19.46Q306.29 20.21 305.87 20.83Q305.45 21.44 304.61 21.80Q303.77 22.17 302.57 22.17L302.57 22.17Q301.55 22.17 300.59 21.92Q299.63 21.67 299.03 21.24ZM322.38 22L317.84 22L317.84 13.60L322.14 13.60Q323.75 13.60 324.59 14.19Q325.43 14.79 325.43 15.79L325.43 15.79Q325.43 16.39 325.13 16.87Q324.84 17.34 324.30 17.62L324.30 17.62Q325.02 17.87 325.43 18.41Q325.83 18.94 325.83 19.70L325.83 19.70Q325.83 20.80 324.95 21.40Q324.06 22 322.38 22L322.38 22ZM320.20 18.58L320.20 20.28L322.19 20.28Q323.44 20.28 323.44 19.43L323.44 19.43Q323.44 18.58 322.19 18.58L322.19 18.58L320.20 18.58ZM320.20 15.31L320.20 16.94L321.83 16.94Q323.03 16.94 323.03 16.12L323.03 16.12Q323.03 15.31 321.83 15.31L321.83 15.31L320.20 15.31ZM330.48 18.26L330.48 18.26L330.48 13.60L332.86 13.60L332.86 18.19Q332.86 20.20 334.45 20.20L334.45 20.20Q336.03 20.20 336.03 18.19L336.03 18.19L336.03 13.60L338.38 13.60L338.38 18.26Q338.38 20.13 337.34 21.15Q336.30 22.17 334.43 22.17L334.43 22.17Q332.55 22.17 331.52 21.15Q330.48 20.13 330.48 18.26ZM345.26 15.48L342.67 15.48L342.67 13.60L350.20 13.60L350.20 15.48L347.63 15.48L347.63 22L345.26 22L345.26 15.48ZM356.36 15.48L353.78 15.48L353.78 13.60L361.30 13.60L361.30 15.48L358.73 15.48L358.73 22L356.36 22L356.36 15.48ZM365.24 17.80L365.24 17.80Q365.24 16.55 365.85 15.55Q366.45 14.56 367.51 14.00Q368.58 13.43 369.91 13.43L369.91 13.43Q371.24 13.43 372.30 14.00Q373.36 14.56 373.97 15.55Q374.58 16.55 374.58 17.80L374.58 17.80Q374.58 19.05 373.97 20.04Q373.36 21.04 372.30 21.60Q371.24 22.17 369.91 22.17L369.91 22.17Q368.58 22.17 367.51 21.60Q366.45 21.04 365.85 20.04Q365.24 19.05 365.24 17.80ZM367.64 17.80L367.64 17.80Q367.64 18.51 367.94 19.05Q368.24 19.60 368.76 19.90Q369.27 20.20 369.91 20.20L369.91 20.20Q370.55 20.20 371.06 19.90Q371.58 19.60 371.88 19.05Q372.17 18.51 372.17 17.80L372.17 17.80Q372.17 17.09 371.88 16.54Q371.58 16 371.06 15.70Q370.55 15.40 369.91 15.40L369.91 15.40Q369.27 15.40 368.76 15.70Q368.24 16 367.94 16.54Q367.64 17.09 367.64 17.80ZM381.64 22L379.31 22L379.31 13.60L381.26 13.60L384.97 18.07L384.97 13.60L387.30 13.60L387.30 22L385.35 22L381.64 17.52L381.64 22ZM401.23 15.48L398.64 15.48L398.64 13.60L406.16 13.60L406.16 15.48L403.60 15.48L403.60 22L401.23 22L401.23 15.48ZM410.11 17.80L410.11 17.80Q410.11 16.55 410.71 15.55Q411.32 14.56 412.38 14.00Q413.44 13.43 414.77 13.43L414.77 13.43Q416.10 13.43 417.17 14.00Q418.23 14.56 418.84 15.55Q419.44 16.55 419.44 17.80L419.44 17.80Q419.44 19.05 418.84 20.04Q418.23 21.04 417.17 21.60Q416.11 22.17 414.77 22.17L414.77 22.17Q413.44 22.17 412.38 21.60Q411.32 21.04 410.71 20.04Q410.11 19.05 410.11 17.80ZM412.50 17.80L412.50 17.80Q412.50 18.51 412.81 19.05Q413.11 19.60 413.62 19.90Q414.14 20.20 414.77 20.20L414.77 20.20Q415.41 20.20 415.93 19.90Q416.44 19.60 416.74 19.05Q417.04 18.51 417.04 17.80L417.04 17.80Q417.04 17.09 416.74 16.54Q416.44 16 415.93 15.70Q415.41 15.40 414.77 15.40L414.77 15.40Q414.13 15.40 413.62 15.70Q413.11 16 412.81 16.54Q412.50 17.09 412.50 17.80ZM431.07 18.26L431.07 18.26L431.07 13.60L433.45 13.60L433.45 18.19Q433.45 20.20 435.05 20.20L435.05 20.20Q436.63 20.20 436.63 18.19L436.63 18.19L436.63 13.60L438.97 13.60L438.97 18.26Q438.97 20.13 437.93 21.15Q436.89 22.17 435.02 22.17L435.02 22.17Q433.15 22.17 432.11 21.15Q431.07 20.13 431.07 18.26ZM443.47 21.24L443.47 21.24L444.25 19.49Q444.81 19.86 445.56 20.09Q446.30 20.32 447.02 20.32L447.02 20.32Q448.39 20.32 448.39 19.64L448.39 19.64Q448.39 19.28 448.00 19.11Q447.61 18.93 446.75 18.74L446.75 18.74Q445.80 18.53 445.16 18.30Q444.53 18.06 444.07 17.55Q443.62 17.03 443.62 16.16L443.62 16.16Q443.62 15.39 444.04 14.77Q444.46 14.15 445.29 13.79Q446.13 13.43 447.33 13.43L447.33 13.43Q448.16 13.43 448.96 13.62Q449.77 13.80 450.39 14.17L450.39 14.17L449.65 15.93Q448.45 15.28 447.32 15.28L447.32 15.28Q446.61 15.28 446.29 15.49Q445.97 15.70 445.97 16.04L445.97 16.04Q445.97 16.37 446.35 16.54Q446.74 16.71 447.58 16.89L447.58 16.89Q448.55 17.10 449.18 17.33Q449.81 17.56 450.27 18.07Q450.73 18.58 450.73 19.46L450.73 19.46Q450.73 20.21 450.31 20.83Q449.89 21.44 449.05 21.80Q448.21 22.17 447.01 22.17L447.01 22.17Q445.99 22.17 445.03 21.92Q444.07 21.67 443.47 21.24ZM462.05 22L455.31 22L455.31 13.60L461.90 13.60L461.90 15.44L457.66 15.44L457.66 16.85L461.40 16.85L461.40 18.63L457.66 18.63L457.66 20.17L462.05 20.17L462.05 22ZM475.62 15.48L473.04 15.48L473.04 13.60L480.56 13.60L480.56 15.48L477.99 15.48L477.99 22L475.62 22L475.62 15.48ZM487.31 22L484.93 22L484.93 13.60L487.31 13.60L487.31 16.76L490.55 16.76L490.55 13.60L492.92 13.60L492.92 22L490.55 22L490.55 18.72L487.31 18.72L487.31 22ZM504.83 22L498.09 22L498.09 13.60L504.68 13.60L504.68 15.44L500.44 15.44L500.44 16.85L504.17 16.85L504.17 18.63L500.44 18.63L500.44 20.17L504.83 20.17L504.83 22ZM518.40 15.48L515.82 15.48L515.82 13.60L523.34 13.60L523.34 15.48L520.77 15.48L520.77 22L518.40 22L518.40 15.48ZM534.46 22L527.71 22L527.71 13.60L534.30 13.60L534.30 15.44L530.07 15.44L530.07 16.85L533.80 16.85L533.80 18.63L530.07 18.63L530.07 20.17L534.46 20.17L534.46 22ZM541.46 22L539.26 22L539.26 13.60L541.22 13.60L544.17 18.45L547.05 13.60L549.00 13.60L549.03 22L546.85 22L546.83 17.55L544.66 21.17L543.61 21.17L541.46 17.67L541.46 22ZM556.57 22L554.19 22L554.19 13.60L558.03 13.60Q559.17 13.60 560.01 13.98Q560.85 14.35 561.31 15.06Q561.77 15.76 561.77 16.71L561.77 16.71Q561.77 17.66 561.31 18.35Q560.85 19.05 560.01 19.42Q559.17 19.80 558.03 19.80L558.03 19.80L556.57 19.80L556.57 22ZM556.57 15.47L556.57 17.93L557.89 17.93Q558.62 17.93 558.99 17.61Q559.36 17.29 559.36 16.71L559.36 16.71Q559.36 16.12 558.99 15.80Q558.62 15.47 557.89 15.47L557.89 15.47L556.57 15.47ZM572.91 22L566.52 22L566.52 13.60L568.90 13.60L568.90 20.11L572.91 20.11L572.91 22ZM578.74 22L576.32 22L580.02 13.60L582.37 13.60L586.08 22L583.62 22L582.95 20.37L579.40 20.37L578.74 22ZM581.18 15.93L580.09 18.61L582.26 18.61L581.18 15.93ZM592.03 15.48L589.45 15.48L589.45 13.60L596.97 13.60L596.97 15.48L594.40 15.48L594.40 22L592.03 22L592.03 15.48ZM608.08 22L601.34 22L601.34 13.60L607.93 13.60L607.93 15.44L603.70 15.44L603.70 16.85L607.43 16.85L607.43 18.63L603.70 18.63L603.70 20.17L608.08 20.17L608.08 22Z" fill="#FFFFFF" x="204.1"/></svg>