<svg xmlns="http://www.w3.org/2000/svg" width="559.72" height="35" viewBox="0 0 559.72 35"><rect class="svg__rect" x="0" y="0" width="132.5" height="35" fill="#31C4F3"/><rect class="svg__rect" x="130.5" y="0" width="429.22" height="35" fill="#389AD5"/><path class="svg__text" d="M16.67 22L14.22 22L14.22 13.47L16.74 13.47Q17.87 13.47 18.74 13.97Q19.62 14.48 20.10 15.40Q20.58 16.33 20.58 17.52L20.58 17.52L20.58 17.95Q20.58 19.16 20.10 20.08Q19.61 21.00 18.72 21.50Q17.83 22 16.67 22L16.67 22ZM15.70 14.66L15.70 20.82L16.67 20.82Q17.83 20.82 18.46 20.09Q19.08 19.36 19.09 17.99L19.09 17.99L19.09 17.52Q19.09 16.13 18.49 15.40Q17.89 14.66 16.74 14.66L16.74 14.66L15.70 14.66ZM24.78 18.00L24.78 18.00L24.78 17.52Q24.78 16.28 25.22 15.32Q25.66 14.37 26.47 13.86Q27.27 13.35 28.31 13.35Q29.36 13.35 30.16 13.85Q30.97 14.35 31.41 15.29Q31.85 16.23 31.85 17.48L31.85 17.48L31.85 17.96Q31.85 19.21 31.42 20.16Q30.99 21.10 30.18 21.61Q29.38 22.12 28.33 22.12L28.33 22.12Q27.29 22.12 26.48 21.61Q25.67 21.10 25.22 20.17Q24.78 19.23 24.78 18.00ZM26.26 17.46L26.26 17.96Q26.26 19.36 26.81 20.13Q27.35 20.90 28.33 20.90L28.33 20.90Q29.31 20.90 29.84 20.15Q30.37 19.40 30.37 17.96L30.37 17.96L30.37 17.51Q30.37 16.09 29.84 15.34Q29.30 14.58 28.31 14.58L28.31 14.58Q27.35 14.58 26.81 15.33Q26.27 16.09 26.26 17.46L26.26 17.46ZM43.78 22L42.30 22L42.30 13.47L43.78 13.47L47.59 19.54L47.59 13.47L49.06 13.47L49.06 22L47.58 22L43.78 15.95L43.78 22ZM53.53 18.00L53.53 18.00L53.53 17.52Q53.53 16.28 53.98 15.32Q54.42 14.37 55.22 13.86Q56.03 13.35 57.07 13.35Q58.12 13.35 58.92 13.85Q59.73 14.35 60.17 15.29Q60.61 16.23 60.61 17.48L60.61 17.48L60.61 17.96Q60.61 19.21 60.18 20.16Q59.74 21.10 58.94 21.61Q58.13 22.12 57.08 22.12L57.08 22.12Q56.05 22.12 55.24 21.61Q54.42 21.10 53.98 20.17Q53.54 19.23 53.53 18.00ZM55.02 17.46L55.02 17.96Q55.02 19.36 55.56 20.13Q56.11 20.90 57.08 20.90L57.08 20.90Q58.07 20.90 58.60 20.15Q59.13 19.40 59.13 17.96L59.13 17.96L59.13 17.51Q59.13 16.09 58.59 15.34Q58.06 14.58 57.07 14.58L57.07 14.58Q56.11 14.58 55.57 15.33Q55.03 16.09 55.02 17.46L55.02 17.46ZM66.76 14.66L64.12 14.66L64.12 13.47L70.89 13.47L70.89 14.66L68.23 14.66L68.23 22L66.76 22L66.76 14.66ZM82.10 22L80.62 22L80.62 13.47L86.04 13.47L86.04 14.66L82.10 14.66L82.10 17.20L85.54 17.20L85.54 18.38L82.10 18.38L82.10 22ZM89.93 18.00L89.93 18.00L89.93 17.52Q89.93 16.28 90.37 15.32Q90.82 14.37 91.62 13.86Q92.43 13.35 93.47 13.35Q94.51 13.35 95.32 13.85Q96.13 14.35 96.56 15.29Q97.00 16.23 97.01 17.48L97.01 17.48L97.01 17.96Q97.01 19.21 96.58 20.16Q96.14 21.10 95.34 21.61Q94.53 22.12 93.48 22.12L93.48 22.12Q92.45 22.12 91.63 21.61Q90.82 21.10 90.38 20.17Q89.94 19.23 89.93 18.00ZM91.41 17.46L91.41 17.96Q91.41 19.36 91.96 20.13Q92.51 20.90 93.48 20.90L93.48 20.90Q94.47 20.90 95.00 20.15Q95.53 19.40 95.53 17.96L95.53 17.96L95.53 17.51Q95.53 16.09 94.99 15.34Q94.46 14.58 93.47 14.58L93.47 14.58Q92.51 14.58 91.97 15.33Q91.43 16.09 91.41 17.46L91.41 17.46ZM102.96 22L101.47 22L101.47 13.47L104.47 13.47Q105.95 13.47 106.75 14.13Q107.56 14.79 107.56 16.05L107.56 16.05Q107.56 16.90 107.14 17.48Q106.73 18.06 105.99 18.37L105.99 18.37L107.91 21.92L107.91 22L106.32 22L104.61 18.71L102.96 18.71L102.96 22ZM102.96 14.66L102.96 17.52L104.48 17.52Q105.23 17.52 105.65 17.15Q106.07 16.77 106.07 16.11L106.07 16.11Q106.07 15.43 105.68 15.05Q105.30 14.68 104.52 14.66L104.52 14.66L102.96 14.66ZM113.43 22L111.95 22L111.95 13.47L113.43 13.47L113.43 17.47L114.25 16.46L116.75 13.47L118.54 13.47L115.37 17.25L118.72 22L116.97 22L114.40 18.31L113.43 19.34L113.43 22Z" fill="#FFFFFF"/><path class="svg__text" d="M144.26 17.80L144.26 17.80Q144.26 16.54 144.86 15.54Q145.46 14.55 146.51 13.99Q147.56 13.43 148.88 13.43L148.88 13.43Q150.03 13.43 150.95 13.84Q151.88 14.25 152.49 15.02L152.49 15.02L150.98 16.39Q150.17 15.40 149.00 15.40L149.00 15.40Q148.31 15.40 147.78 15.70Q147.25 16 146.95 16.54Q146.66 17.09 146.66 17.80L146.66 17.80Q146.66 18.51 146.95 19.05Q147.25 19.60 147.78 19.90Q148.31 20.20 149.00 20.20L149.00 20.20Q150.17 20.20 150.98 19.22L150.98 19.22L152.49 20.58Q151.88 21.35 150.96 21.76Q150.03 22.17 148.88 22.17L148.88 22.17Q147.56 22.17 146.51 21.61Q145.46 21.05 144.86 20.05Q144.26 19.06 144.26 17.80ZM163.41 22L157.03 22L157.03 13.60L159.41 13.60L159.41 20.11L163.41 20.11L163.41 22ZM170.21 22L167.83 22L167.83 13.60L170.21 13.60L170.21 22ZM174.96 17.80L174.96 17.80Q174.96 16.54 175.56 15.54Q176.15 14.55 177.20 13.99Q178.26 13.43 179.57 13.43L179.57 13.43Q180.73 13.43 181.65 13.84Q182.57 14.25 183.19 15.02L183.19 15.02L181.68 16.39Q180.86 15.40 179.70 15.40L179.70 15.40Q179.01 15.40 178.48 15.70Q177.95 16 177.65 16.54Q177.35 17.09 177.35 17.80L177.35 17.80Q177.35 18.51 177.65 19.05Q177.95 19.60 178.48 19.90Q179.01 20.20 179.70 20.20L179.70 20.20Q180.86 20.20 181.68 19.22L181.68 19.22L183.19 20.58Q182.58 21.35 181.65 21.76Q180.73 22.17 179.57 22.17L179.57 22.17Q178.26 22.17 177.20 21.61Q176.15 21.05 175.56 20.05Q174.96 19.06 174.96 17.80ZM190.08 22L187.72 22L187.72 13.60L190.08 13.60L190.08 17.09L193.33 13.60L195.95 13.60L192.52 17.32L196.13 22L193.37 22L190.97 18.95L190.08 19.90L190.08 22ZM209.00 15.48L206.42 15.48L206.42 13.60L213.94 13.60L213.94 15.48L211.37 15.48L211.37 22L209.00 22L209.00 15.48ZM220.69 22L218.31 22L218.31 13.60L220.69 13.60L220.69 16.76L223.93 16.76L223.93 13.60L226.30 13.60L226.30 22L223.93 22L223.93 18.72L220.69 18.72L220.69 22ZM233.84 22L231.47 22L231.47 13.60L233.84 13.60L233.84 22ZM238.43 21.24L238.43 21.24L239.21 19.49Q239.77 19.86 240.52 20.09Q241.26 20.32 241.98 20.32L241.98 20.32Q243.35 20.32 243.35 19.64L243.35 19.64Q243.35 19.28 242.96 19.11Q242.57 18.93 241.71 18.74L241.71 18.74Q240.76 18.53 240.12 18.30Q239.49 18.06 239.03 17.55Q238.58 17.03 238.58 16.16L238.58 16.16Q238.58 15.39 239.00 14.77Q239.42 14.15 240.25 13.79Q241.09 13.43 242.29 13.43L242.29 13.43Q243.12 13.43 243.93 13.62Q244.73 13.80 245.35 14.17L245.35 14.17L244.61 15.93Q243.41 15.28 242.28 15.28L242.28 15.28Q241.57 15.28 241.25 15.49Q240.93 15.70 240.93 16.04L240.93 16.04Q240.93 16.37 241.31 16.54Q241.70 16.71 242.55 16.89L242.55 16.89Q243.51 17.10 244.14 17.33Q244.77 17.56 245.23 18.07Q245.69 18.58 245.69 19.46L245.69 19.46Q245.69 20.21 245.27 20.83Q244.85 21.44 244.01 21.80Q243.17 22.17 241.97 22.17L241.97 22.17Q240.95 22.17 239.99 21.92Q239.03 21.67 238.43 21.24ZM261.78 22L257.24 22L257.24 13.60L261.54 13.60Q263.15 13.60 263.99 14.19Q264.83 14.79 264.83 15.79L264.83 15.79Q264.83 16.39 264.53 16.87Q264.24 17.34 263.70 17.62L263.70 17.62Q264.42 17.87 264.83 18.41Q265.23 18.94 265.23 19.70L265.23 19.70Q265.23 20.80 264.35 21.40Q263.46 22 261.78 22L261.78 22ZM259.60 18.58L259.60 20.28L261.59 20.28Q262.84 20.28 262.84 19.43L262.84 19.43Q262.84 18.58 261.59 18.58L261.59 18.58L259.60 18.58ZM259.60 15.31L259.60 16.94L261.23 16.94Q262.43 16.94 262.43 16.12L262.43 16.12Q262.43 15.31 261.23 15.31L261.23 15.31L259.60 15.31ZM269.88 18.26L269.88 18.26L269.88 13.60L272.26 13.60L272.26 18.19Q272.26 20.20 273.85 20.20L273.85 20.20Q275.43 20.20 275.43 18.19L275.43 18.19L275.43 13.60L277.78 13.60L277.78 18.26Q277.78 20.13 276.74 21.15Q275.70 22.17 273.83 22.17L273.83 22.17Q271.95 22.17 270.92 21.15Q269.88 20.13 269.88 18.26ZM284.66 15.48L282.07 15.48L282.07 13.60L289.60 13.60L289.60 15.48L287.03 15.48L287.03 22L284.66 22L284.66 15.48ZM295.76 15.48L293.18 15.48L293.18 13.60L300.70 13.60L300.70 15.48L298.13 15.48L298.13 22L295.76 22L295.76 15.48ZM304.64 17.80L304.64 17.80Q304.64 16.55 305.25 15.55Q305.85 14.56 306.91 14.00Q307.98 13.43 309.31 13.43L309.31 13.43Q310.64 13.43 311.70 14.00Q312.76 14.56 313.37 15.55Q313.98 16.55 313.98 17.80L313.98 17.80Q313.98 19.05 313.37 20.04Q312.76 21.04 311.70 21.60Q310.64 22.17 309.31 22.17L309.31 22.17Q307.98 22.17 306.91 21.60Q305.85 21.04 305.25 20.04Q304.64 19.05 304.64 17.80ZM307.04 17.80L307.04 17.80Q307.04 18.51 307.34 19.05Q307.64 19.60 308.16 19.90Q308.67 20.20 309.31 20.20L309.31 20.20Q309.95 20.20 310.46 19.90Q310.98 19.60 311.28 19.05Q311.57 18.51 311.57 17.80L311.57 17.80Q311.57 17.09 311.28 16.54Q310.98 16 310.46 15.70Q309.95 15.40 309.31 15.40L309.31 15.40Q308.67 15.40 308.16 15.70Q307.64 16 307.34 16.54Q307.04 17.09 307.04 17.80ZM321.04 22L318.71 22L318.71 13.60L320.66 13.60L324.37 18.07L324.37 13.60L326.70 13.60L326.70 22L324.75 22L321.04 17.52L321.04 22ZM340.63 15.48L338.04 15.48L338.04 13.60L345.56 13.60L345.56 15.48L343.00 15.48L343.00 22L340.63 22L340.63 15.48ZM349.51 17.80L349.51 17.80Q349.51 16.55 350.11 15.55Q350.72 14.56 351.78 14.00Q352.84 13.43 354.17 13.43L354.17 13.43Q355.50 13.43 356.57 14.00Q357.63 14.56 358.24 15.55Q358.84 16.55 358.84 17.80L358.84 17.80Q358.84 19.05 358.24 20.04Q357.63 21.04 356.57 21.60Q355.51 22.17 354.17 22.17L354.17 22.17Q352.84 22.17 351.78 21.60Q350.72 21.04 350.11 20.04Q349.51 19.05 349.51 17.80ZM351.90 17.80L351.90 17.80Q351.90 18.51 352.21 19.05Q352.51 19.60 353.02 19.90Q353.54 20.20 354.17 20.20L354.17 20.20Q354.81 20.20 355.33 19.90Q355.84 19.60 356.14 19.05Q356.44 18.51 356.44 17.80L356.44 17.80Q356.44 17.09 356.14 16.54Q355.84 16 355.33 15.70Q354.81 15.40 354.17 15.40L354.17 15.40Q353.53 15.40 353.02 15.70Q352.51 16 352.21 16.54Q351.90 17.09 351.90 17.80ZM370.47 18.26L370.47 18.26L370.47 13.60L372.85 13.60L372.85 18.19Q372.85 20.20 374.45 20.20L374.45 20.20Q376.03 20.20 376.03 18.19L376.03 18.19L376.03 13.60L378.37 13.60L378.37 18.26Q378.37 20.13 377.33 21.15Q376.29 22.17 374.42 22.17L374.42 22.17Q372.55 22.17 371.51 21.15Q370.47 20.13 370.47 18.26ZM382.87 21.24L382.87 21.24L383.65 19.49Q384.21 19.86 384.96 20.09Q385.70 20.32 386.42 20.32L386.42 20.32Q387.79 20.32 387.79 19.64L387.79 19.64Q387.79 19.28 387.40 19.11Q387.01 18.93 386.15 18.74L386.15 18.74Q385.20 18.53 384.56 18.30Q383.93 18.06 383.47 17.55Q383.02 17.03 383.02 16.16L383.02 16.16Q383.02 15.39 383.44 14.77Q383.86 14.15 384.69 13.79Q385.53 13.43 386.73 13.43L386.73 13.43Q387.56 13.43 388.36 13.62Q389.17 13.80 389.79 14.17L389.79 14.17L389.05 15.93Q387.85 15.28 386.72 15.28L386.72 15.28Q386.01 15.28 385.69 15.49Q385.37 15.70 385.37 16.04L385.37 16.04Q385.37 16.37 385.75 16.54Q386.14 16.71 386.98 16.89L386.98 16.89Q387.95 17.10 388.58 17.33Q389.21 17.56 389.67 18.07Q390.13 18.58 390.13 19.46L390.13 19.46Q390.13 20.21 389.71 20.83Q389.29 21.44 388.45 21.80Q387.61 22.17 386.41 22.17L386.41 22.17Q385.39 22.17 384.43 21.92Q383.47 21.67 382.87 21.24ZM401.45 22L394.71 22L394.71 13.60L401.30 13.60L401.30 15.44L397.06 15.44L397.06 16.85L400.80 16.85L400.80 18.63L397.06 18.63L397.06 20.17L401.45 20.17L401.45 22ZM415.02 15.48L412.44 15.48L412.44 13.60L419.96 13.60L419.96 15.48L417.39 15.48L417.39 22L415.02 22L415.02 15.48ZM426.71 22L424.33 22L424.33 13.60L426.71 13.60L426.71 16.76L429.95 16.76L429.95 13.60L432.32 13.60L432.32 22L429.95 22L429.95 18.72L426.71 18.72L426.71 22ZM444.23 22L437.49 22L437.49 13.60L444.08 13.60L444.08 15.44L439.84 15.44L439.84 16.85L443.57 16.85L443.57 18.63L439.84 18.63L439.84 20.17L444.23 20.17L444.23 22ZM457.80 15.48L455.22 15.48L455.22 13.60L462.74 13.60L462.74 15.48L460.17 15.48L460.17 22L457.80 22L457.80 15.48ZM473.86 22L467.11 22L467.11 13.60L473.70 13.60L473.70 15.44L469.47 15.44L469.47 16.85L473.20 16.85L473.20 18.63L469.47 18.63L469.47 20.17L473.86 20.17L473.86 22ZM480.86 22L478.66 22L478.66 13.60L480.62 13.60L483.57 18.45L486.45 13.60L488.40 13.60L488.43 22L486.25 22L486.23 17.55L484.06 21.17L483.01 21.17L480.86 17.67L480.86 22ZM495.97 22L493.59 22L493.59 13.60L497.43 13.60Q498.57 13.60 499.41 13.98Q500.25 14.35 500.71 15.06Q501.17 15.76 501.17 16.71L501.17 16.71Q501.17 17.66 500.71 18.35Q500.25 19.05 499.41 19.42Q498.57 19.80 497.43 19.80L497.43 19.80L495.97 19.80L495.97 22ZM495.97 15.47L495.97 17.93L497.29 17.93Q498.02 17.93 498.39 17.61Q498.76 17.29 498.76 16.71L498.76 16.71Q498.76 16.12 498.39 15.80Q498.02 15.47 497.29 15.47L497.29 15.47L495.97 15.47ZM512.31 22L505.92 22L505.92 13.60L508.30 13.60L508.30 20.11L512.31 20.11L512.31 22ZM518.14 22L515.72 22L519.42 13.60L521.77 13.60L525.48 22L523.02 22L522.35 20.37L518.80 20.37L518.14 22ZM520.58 15.93L519.49 18.61L521.66 18.61L520.58 15.93ZM531.43 15.48L528.85 15.48L528.85 13.60L536.37 13.60L536.37 15.48L533.80 15.48L533.80 22L531.43 22L531.43 15.48ZM547.48 22L540.74 22L540.74 13.60L547.33 13.60L547.33 15.44L543.10 15.44L543.10 16.85L546.83 16.85L546.83 18.63L543.10 18.63L543.10 20.17L547.48 20.17L547.48 22Z" fill="#FFFFFF" x="143.5"/></svg>